<svg width="48" height="48" viewBox="0 0 48 48" fill="none" xmlns="http://www.w3.org/2000/svg">
<path d="M27.5056 14.1758H15.6655C15.2763 14.1758 14.9609 14.4913 14.9609 14.8803C14.9609 15.2694 15.2763 15.5848 15.6655 15.5848H27.5056C27.8948 15.5848 28.2102 15.2694 28.2102 14.8803C28.2102 14.4912 27.8948 14.1758 27.5056 14.1758Z" fill="#FF8159"/>
<path d="M15.6655 18.1127H22.3202C22.7094 18.1127 23.0248 17.7972 23.0248 17.4081C23.0248 17.0191 22.7094 16.7036 22.3202 16.7036H15.6655C15.2763 16.7036 14.9609 17.0191 14.9609 17.4081C14.961 17.7972 15.2764 18.1127 15.6655 18.1127Z" fill="#FF8159"/>
<path d="M12.1205 13.8884L9.52738 16.5474L8.40557 15.4566C8.12666 15.1853 7.6806 15.1916 7.40938 15.4704C7.13816 15.7494 7.14435 16.1954 7.42335 16.4667L9.04944 18.0481C9.32432 18.3156 9.77722 18.3093 10.0449 18.0349L13.1292 14.8721C13.4008 14.5936 13.3953 14.1475 13.1167 13.8759C12.8379 13.6042 12.3921 13.61 12.1205 13.8884Z" fill="#FF8159"/>
<path d="M27.5056 21.3511H15.6655C15.2763 21.3511 14.9609 21.6664 14.9609 22.0556C14.9609 22.4447 15.2763 22.7601 15.6655 22.7601H27.5056C27.8948 22.7601 28.2102 22.4447 28.2102 22.0556C28.2102 21.6665 27.8948 21.3511 27.5056 21.3511Z" fill="#FF8159"/>
<path d="M22.3202 23.8789H15.6655C15.2763 23.8789 14.9609 24.1943 14.9609 24.5834C14.9609 24.9726 15.2763 25.288 15.6655 25.288H22.3202C22.7094 25.288 23.0248 24.9725 23.0248 24.5834C23.0248 24.1944 22.7094 23.8789 22.3202 23.8789Z" fill="#FF8159"/>
<path d="M12.1205 21.0633L9.52738 23.7223L8.40557 22.6314C8.12647 22.3601 7.6806 22.3665 7.40938 22.6454C7.13816 22.9243 7.14435 23.3703 7.42335 23.6416L9.04944 25.2228C9.32432 25.4903 9.77722 25.484 10.0449 25.2096L13.1292 22.047C13.4008 21.7684 13.3953 21.3224 13.1167 21.0507C12.8381 20.779 12.3921 20.7847 12.1205 21.0633Z" fill="#FF8159"/>
<path d="M12.1205 28.238L9.52738 30.897L8.40557 29.8061C8.12666 29.5348 7.6806 29.5412 7.40938 29.8201C7.13816 30.099 7.14435 30.5451 7.42335 30.8163L9.04944 32.3976C9.32432 32.665 9.77722 32.6588 10.0449 32.3843L13.1292 29.2217C13.4008 28.9432 13.3953 28.4971 13.1167 28.2254C12.8381 27.9538 12.3921 27.9596 12.1205 28.238Z" fill="#FF8159"/>
<path d="M12.1205 35.4134L9.52738 38.0724L8.40557 36.9815C8.12666 36.7102 7.6806 36.7166 7.40938 36.9954C7.13816 37.2743 7.14435 37.7204 7.42335 37.9917L9.04944 39.5731C9.32432 39.8405 9.77722 39.8343 10.0449 39.5599L13.1292 36.3972C13.4008 36.1187 13.3953 35.6726 13.1167 35.4009C12.8381 35.129 12.3921 35.1348 12.1205 35.4134Z" fill="#FF8159"/>
<path d="M41.1948 24.559C42.685 22.317 42.3497 19.232 42.3328 19.0861C42.2951 18.7613 42.0389 18.5051 41.7141 18.4674C41.5502 18.4485 37.674 18.0272 35.4542 20.247C35.3339 20.3674 35.2232 20.4938 35.118 20.6231V15.7455C35.118 15.3564 34.8026 15.041 34.4134 15.041C34.0243 15.041 33.7089 15.3563 33.7089 15.7455V22.4664C33.2388 21.7226 32.6121 20.9765 31.7781 20.2986V7.97663C31.7781 7.58756 31.4627 7.27209 31.0736 7.27209H26.1612V5.30222H32.5886C33.2063 5.30222 33.7088 5.80481 33.7088 6.42244V12.9275C33.7088 13.3165 34.0242 13.632 34.4133 13.632C34.8025 13.632 35.1179 13.3165 35.1179 12.9275V6.42253C35.1179 5.02791 33.9832 3.89334 32.5887 3.89334H26.0235C25.7417 3.19191 25.0558 2.69466 24.2548 2.69466H21.923V1.65834C21.9232 0.743906 21.1792 0 20.2649 0H15.8316C14.9172 0 14.1732 0.743906 14.1732 1.65834V2.69456H11.8416C11.0405 2.69456 10.3546 3.19172 10.0729 3.89325H3.5077C2.11308 3.89325 0.978516 5.02781 0.978516 6.42244V45.4521C0.978516 46.8467 2.11317 47.9813 3.5077 47.9813H31.1254C32.3148 48.0796 33.4408 47.7246 34.4133 46.9314C35.2775 47.6369 36.263 47.9998 37.3149 47.9998C37.5195 47.9998 37.7266 47.986 37.9358 47.9585C40.294 47.647 42.6619 45.6314 44.4325 42.4283C44.6207 42.0878 44.4974 41.6592 44.1568 41.471C43.8165 41.2828 43.3876 41.4062 43.1995 41.7467C41.6702 44.5131 39.6336 46.3131 37.7515 46.5616C36.6957 46.7007 35.7439 46.3388 34.9205 45.4854C34.6474 45.2026 34.1797 45.2025 33.9066 45.4854C32.859 46.5712 31.6191 46.8608 30.2206 46.3461C28.6251 45.7587 26.9822 44.1382 25.7131 41.8997C24.3101 39.425 23.429 36.3198 23.232 33.1562C23.102 31.0673 23.6873 29.3153 24.9714 27.9489C26.6874 26.1228 29.6766 25.0028 33.2813 24.8096C33.3471 25.0011 33.4084 25.1955 33.4612 25.3956C33.6938 26.2768 33.7456 27.0621 33.7462 27.5833C32.4395 27.4028 31.5866 26.7544 31.5791 26.7486C31.2738 26.5073 30.8308 26.5591 30.5895 26.8643C30.3483 27.1696 30.4001 27.6127 30.7054 27.8539C30.7666 27.9023 32.2294 29.0386 34.4129 29.0388C34.4133 29.0388 34.4139 29.0389 34.4144 29.0389C34.4156 29.0389 34.4167 29.0387 34.4179 29.0387C36.5993 29.0371 38.0604 27.9022 38.1215 27.8538C38.4713 27.5774 38.4714 27.0328 38.1246 26.7539C38.8395 26.5298 39.5567 26.1901 40.1805 25.681C44.923 27.3519 45.7508 30.6504 45.5949 33.156C45.4615 35.2984 45.0344 37.3569 44.3253 39.2744C44.1974 39.6205 44.3669 40.0175 44.7051 40.1647C45.0713 40.324 45.5085 40.1372 45.6468 39.763C46.4036 37.7166 46.8592 35.523 47.0011 33.2435C47.2518 29.2153 45.1974 26.1636 41.1948 24.559ZM11.3442 4.60106C11.3442 4.32675 11.5674 4.10363 11.8416 4.10363H14.8777C15.2669 4.10363 15.5822 3.78825 15.5822 3.39909V1.65834C15.5822 1.52081 15.6942 1.40897 15.8316 1.40897H20.2649C20.4024 1.40897 20.5142 1.52081 20.5142 1.65834V3.39909C20.5142 3.78816 20.8296 4.10363 21.2188 4.10363H24.255C24.5293 4.10363 24.7524 4.32675 24.7524 4.60106V7.90931C24.7524 8.18363 24.5292 8.40684 24.255 8.40684H11.8416C11.5673 8.40684 11.3442 8.18363 11.3442 7.90931V4.60106ZM23.9446 26.9842C23.4961 27.4614 23.1201 27.9766 22.8121 28.5259H15.6659C15.2767 28.5259 14.9613 28.8413 14.9613 29.2304C14.9613 29.6195 15.2767 29.9349 15.6659 29.9349H22.2008C22.0857 30.2961 21.9942 30.6687 21.9296 31.0538H15.6659C15.2767 31.0538 14.9613 31.3693 14.9613 31.7584C14.9613 32.1474 15.2767 32.4629 15.6659 32.4629H21.808C21.8049 32.7191 21.8094 32.9789 21.8259 33.2439C21.8776 34.0759 21.972 34.8964 22.106 35.7009H15.6659C15.2767 35.7009 14.9613 36.0164 14.9613 36.4055C14.9613 36.7945 15.2767 37.11 15.6659 37.11H22.3861C22.4734 37.4875 22.5691 37.8608 22.6746 38.2289H15.6659C15.2767 38.2289 14.9613 38.5444 14.9613 38.9334C14.9613 39.3225 15.2767 39.638 15.6659 39.638H23.1331C23.5108 40.6773 23.9623 41.6685 24.4876 42.5949C24.6036 42.7996 24.7226 42.9989 24.8437 43.1937H5.72714V28.4483C5.72714 28.0593 5.41177 27.7438 5.02261 27.7438C4.63345 27.7438 4.31808 28.0593 4.31808 28.4483V43.898C4.31808 44.287 4.63345 44.6025 5.02261 44.6025H25.83C26.4474 45.383 27.1079 46.0454 27.794 46.5724H3.5077C2.88998 46.5724 2.38748 46.0698 2.38748 45.4522V6.42253C2.38748 5.80481 2.88998 5.30231 3.5077 5.30231H9.93511V7.27219H5.02261C4.63345 7.27219 4.31808 7.58756 4.31808 7.97672V25.6303C4.31808 26.0194 4.63345 26.3348 5.02261 26.3348C5.41177 26.3348 5.72714 26.0194 5.72714 25.6303V8.68116H10.0999C10.3969 9.34856 11.0652 9.81581 11.8416 9.81581H24.2549C25.0313 9.81581 25.6995 9.34866 25.9965 8.68116H30.3692V19.3609C30.0602 19.2606 29.713 19.3849 29.5433 19.677C29.3478 20.0135 29.462 20.4446 29.7984 20.6401C29.9965 20.7552 30.1857 20.8771 30.3692 21.0033V23.7586C27.663 24.3061 25.4175 25.4168 23.9446 26.9842ZM31.7783 23.5304V22.2336C32.1128 22.6062 32.406 23.0087 32.6574 23.4406C32.3603 23.4644 32.0672 23.4945 31.7783 23.5304ZM35.1558 27.5729C35.1556 27.449 35.1529 27.314 35.1465 27.1688C35.1713 27.1689 35.1945 27.1694 35.22 27.1694C35.632 27.1694 36.152 27.1462 36.7207 27.0659C36.3549 27.2528 35.8159 27.4715 35.1558 27.5729ZM35.0436 25.7568C35.0258 24.7148 35.1587 22.5353 36.4507 21.2434C37.7427 19.9512 39.9252 19.8185 40.9639 19.8363C40.9818 20.8781 40.8489 23.0577 39.5569 24.3497C38.2649 25.6418 36.0864 25.7741 35.0436 25.7568Z" fill="#FF8159"/>
</svg>
