<svg width="64" height="64" viewBox="0 0 64 64" fill="none" xmlns="http://www.w3.org/2000/svg">
<path d="M32 0C14.3547 0 0 14.3547 0 32C0 49.6453 14.3547 64 32 64C49.6453 64 64 49.6453 64 32C64 14.3547 49.6453 0 32 0ZM48.2187 25.2187L30.8853 42.552C30.3653 43.072 29.6827 43.3333 29 43.3333C28.3173 43.3333 27.6347 43.072 27.1147 42.552L18.448 33.8853C17.4053 32.8427 17.4053 31.1573 18.448 30.1147C19.4907 29.072 21.176 29.072 22.2187 30.1147L29 36.896L44.448 21.448C45.4907 20.4053 47.176 20.4053 48.2187 21.448C49.2613 22.4907 49.2613 24.176 48.2187 25.2187Z" fill="#FF8159"/>
</svg>
