<svg width="181" height="47" viewBox="0 0 181 47" fill="none" xmlns="http://www.w3.org/2000/svg">
<path d="M23.7542 46.7254C17.7259 46.7422 11.937 44.3435 7.6568 40.0554C7.3054 39.7054 6.9737 39.3554 6.6421 38.9804C3.0946 34.9528 1.04677 29.8027 0.850586 24.4154C0.850586 24.1704 0.850586 23.9154 0.850586 23.6804V23.5754C0.939056 17.4952 3.3923 11.6944 7.6803 7.42629C11.9683 3.15819 17.7466 0.765625 23.7666 0.765625C29.7866 0.765625 35.5649 3.15819 39.8529 7.42629C44.1409 11.6944 46.5942 17.4952 46.6826 23.5754C46.682 24.3603 46.6424 25.1446 46.5638 25.9254C46.5391 26.1904 46.5094 26.4254 46.4747 26.7154C46.1481 29.1648 45.4292 31.5442 44.3462 33.7604C44.1878 34.0954 44.0047 34.4504 43.7968 34.8354C41.8062 38.4399 38.899 41.4423 35.3756 43.5325C31.8523 45.6227 27.8403 46.7249 23.7542 46.7254ZM23.7542 1.43042C17.9409 1.43571 12.3671 3.77039 8.256 7.92209C4.1449 12.0738 1.83229 17.7034 1.82574 23.5754V23.6804C1.82574 23.9154 1.82574 24.1404 1.82574 24.3754C2.01093 29.5323 3.9716 34.4623 7.3697 38.3154C7.6865 38.6754 7.9984 39.0104 8.3597 39.3404C10.7663 41.7391 13.6893 43.5431 16.9003 44.6117C20.1114 45.6803 23.5237 45.9844 26.8704 45.5003C30.2171 45.0162 33.4077 43.757 36.1928 41.821C38.978 39.8851 41.2822 37.3249 42.9256 34.3404C43.1285 33.9754 43.3018 33.6404 43.4503 33.3404C44.4828 31.213 45.1649 28.9297 45.4699 26.5804C45.5045 26.3254 45.5293 26.0804 45.554 25.8304C45.6283 25.0704 45.6679 24.3304 45.6679 23.5754C45.6613 17.706 43.3508 12.0787 39.2429 7.92739C35.135 3.77609 29.565 1.43968 23.7542 1.43042Z" fill="#FF8159"/>
<path d="M44.2181 33.5395C44.0498 33.8945 43.8716 34.2445 43.6786 34.5895C37.4119 32.1995 31.3432 31.6845 25.5962 33.0545C22.0669 33.8945 19.483 35.2145 16.9783 36.4995C14.2855 37.8745 11.7263 39.1795 8.34547 39.6945C7.99897 39.3545 7.67717 39.0095 7.35547 38.6445C10.9838 38.2545 13.6519 36.8895 16.4635 35.4495C19.0276 34.1345 21.6758 32.7795 25.3388 31.9095C31.358 30.4995 37.6841 31.0245 44.2181 33.5395Z" fill="#FF8159"/>
<path d="M46.6529 26.6152C43.726 27.8124 40.6711 28.6615 37.5499 29.1452C36.1574 29.3595 34.751 29.4681 33.3424 29.4702C30.7606 29.4917 28.1942 29.0672 25.754 28.2152C24.3315 27.6863 22.9486 27.0546 21.6158 26.3252C19.5856 25.1586 17.3953 24.3026 15.1165 23.7852C13.6225 23.4589 12.1006 23.2797 10.5724 23.2502C7.4026 23.2086 4.2484 23.7055 1.24164 24.7202L0.850586 23.5002C4.0498 22.4389 7.4037 21.9318 10.7704 22.0002C11.4376 18.5854 13.3402 15.5441 16.107 13.4696C18.8739 11.395 22.3066 10.4359 25.7356 10.7793C29.1647 11.1227 32.3441 12.7441 34.6537 15.3271C36.9634 17.9101 38.2377 21.2696 38.228 24.7502C38.23 25.7781 38.1171 26.8029 37.8914 27.8052C40.7318 27.3129 43.5127 26.5185 46.1876 25.4352L46.6529 26.6152Z" fill="#FF8159"/>
<path d="M64.2801 13.5349L63.8296 16.1499H69.8785L69.4924 18.2749H63.4534L62.5971 23.2449H60.1221C60.4521 21.2649 60.7969 19.2882 61.1566 17.3149C61.5163 15.3415 61.8595 13.3632 62.1862 11.3799H71.3982L71.0121 13.5349H64.2801Z" fill="white"/>
<path d="M75.8432 11.3799L73.7592 23.2449H71.3535L73.4226 11.3799H75.8432Z" fill="white"/>
<path d="M86.1592 13.5349H82.412L80.7142 23.2449H78.3134L80.0113 13.5349H76.1602L76.5611 11.3799H86.5552L86.1592 13.5349Z" fill="white"/>
<path d="M109.419 11.3799L103.454 23.2449H100.796L99.89 15.8599H99.826L96.178 23.2449H93.554L91.8564 11.3799H94.549L95.336 20.8799H95.406L99.519 11.3799H101.756L102.563 20.9049H102.633C103.293 19.3649 103.972 17.7799 104.672 16.1499C105.372 14.5199 106.058 12.9299 106.731 11.3799H109.419Z" fill="white"/>
<path d="M113.721 11.3799L111.637 23.2449H109.236L111.305 11.3799H113.721Z" fill="white"/>
<path d="M124.041 13.5349H120.294L118.596 23.2449H116.191L117.888 13.5349H114.022L114.428 11.3799H124.442L124.041 13.5349Z" fill="white"/>
<path d="M137.386 11.3799L135.317 23.2449H132.916L133.753 18.4099H127.739L126.882 23.2449H124.477L126.546 11.3799H128.966L128.135 16.2699H134.124L134.98 11.3799H137.386Z" fill="white"/>
<path d="M156.206 11.3799L154.142 23.2449H151.737L152.578 18.4099H146.564L145.702 23.2449H143.302L145.366 11.3799H147.786L146.945 16.2699H152.964L153.82 11.3799H156.206Z" fill="white"/>
<path d="M160.998 13.5349L160.542 16.1499H166.596L166.21 18.2749H160.191L159.696 21.0549H166.453L166.081 23.2449H156.845C157.195 21.2649 157.539 19.2882 157.879 17.3149C158.219 15.3415 158.564 13.3632 158.914 11.3799H168.126L167.735 13.5349H160.998Z" fill="white"/>
<path d="M179.382 14.0299C179.473 14.6156 179.463 15.2126 179.353 15.7949C179.248 16.3118 179.053 16.806 178.779 17.2549C178.506 17.6903 178.155 18.0702 177.744 18.3749C177.31 18.6984 176.824 18.9453 176.309 19.1049L177.521 23.2649H174.913L173.838 19.3749H171.2C171.076 20.0649 170.967 20.7149 170.864 21.3199C170.76 21.9249 170.651 22.5649 170.527 23.2449H168.111C168.458 21.2882 168.808 19.3082 169.161 17.3049C169.514 15.3016 169.864 13.3266 170.21 11.3799H175.403C175.846 11.3794 176.288 11.4196 176.724 11.4999C177.141 11.5737 177.544 11.7137 177.917 11.9149C178.28 12.1139 178.597 12.3882 178.848 12.7199C179.13 13.1055 179.314 13.5555 179.382 14.0299ZM176.645 16.3349C176.773 16.0875 176.867 15.8233 176.922 15.5499C176.982 15.2724 176.995 14.9868 176.962 14.7049C176.943 14.53 176.885 14.3617 176.794 14.2121C176.702 14.0625 176.579 13.9353 176.432 13.8399C176.117 13.6451 175.753 13.5461 175.383 13.5549H172.24L171.586 17.2049H174.556C174.744 17.2049 174.937 17.2049 175.135 17.2049C175.327 17.1878 175.516 17.1493 175.7 17.0899C175.878 17.0326 176.046 16.9447 176.195 16.8299C176.373 16.694 176.526 16.5262 176.645 16.3349Z" fill="white"/>
<path d="M65.0668 32.1852C65.268 32.1926 65.4657 32.2412 65.6478 32.3282C65.8299 32.4151 65.9926 32.5386 66.1259 32.6911C66.2593 32.8436 66.3606 33.0219 66.4235 33.2151C66.4865 33.4084 66.5099 33.6125 66.4924 33.8152C66.5111 34.0754 66.4564 34.3357 66.3346 34.5658C66.2128 34.7959 66.0289 34.9864 65.8043 35.1152C65.1298 35.4182 64.3928 35.552 63.656 35.5052H60.6514V28.9352H63.656C64.3585 28.8827 65.0616 29.0299 65.6855 29.3602C65.8955 29.5089 66.0638 29.7101 66.174 29.944C66.2841 30.178 66.3324 30.4368 66.3142 30.6952C66.3249 31.0306 66.2277 31.3604 66.037 31.6352C65.7793 31.9271 65.4294 32.1197 65.047 32.1802L65.0668 32.1852ZM61.3939 31.8752H63.656C64.1464 31.904 64.6362 31.8095 65.0816 31.6002C65.23 31.5311 65.3556 31.4204 65.4433 31.2812C65.5311 31.142 65.5774 30.9802 65.5766 30.8152C65.5774 30.6435 65.5437 30.4734 65.4776 30.3152C65.4095 30.1646 65.2972 30.0389 65.1559 29.9552C64.9737 29.8488 64.7742 29.776 64.5668 29.7402C64.2675 29.6902 63.9644 29.6667 63.661 29.6702H61.3988L61.3939 31.8752ZM63.656 34.7902C64.002 34.7961 64.3479 34.7744 64.6906 34.7252C64.9148 34.6961 65.1324 34.6285 65.3341 34.5252C65.4771 34.4562 65.5924 34.3397 65.6608 34.1952C65.7865 33.874 65.7865 33.5164 65.6608 33.1952C65.5841 33.0408 65.4611 32.9148 65.3093 32.8352C65.1101 32.7234 64.8918 32.6505 64.6658 32.6202C64.3385 32.5676 64.0072 32.5441 63.6758 32.5502H61.4137V34.7752L63.656 34.7902Z" fill="#FF8159"/>
<path d="M72.5564 32.9655V35.5005H71.809V32.9655L69.334 28.9355H70.1606L72.2 32.3305L74.18 28.9355H75.0067L72.5564 32.9655Z" fill="#FF8159"/>
<path d="M89.4503 28.9357V35.5007H88.7078V30.4207L86.411 34.4207H86.3664L84.0696 30.4207V35.5007H83.3271V28.9357H84.0796L86.3566 33.0007H86.3813L88.6979 28.9307L89.4503 28.9357Z" fill="#FF8159"/>
<path d="M98.1769 35.5007L97.5339 33.9507H94.0689L93.4249 35.5007H92.5938L95.3949 28.9307H96.1869L98.9639 35.5007H98.1769ZM94.3059 33.3007H97.2759L95.7909 29.7507H95.7619L94.3059 33.3007Z" fill="#FF8159"/>
<path d="M107.419 31.0596C107.442 31.5281 107.314 31.9913 107.053 32.3796C106.787 32.7217 106.416 32.9645 105.999 33.0696L107.439 35.4996H106.627L105.281 33.1796H102.806V35.4996H102.063V28.9346H104.974C105.626 28.8907 106.272 29.0919 106.786 29.4996C107 29.6957 107.168 29.9374 107.277 30.2073C107.387 30.4772 107.435 30.7684 107.419 31.0596ZM104.994 32.4996C105.436 32.5289 105.875 32.4074 106.241 32.1546C106.393 32.0221 106.512 31.8551 106.587 31.6674C106.663 31.4797 106.694 31.2766 106.677 31.0746C106.688 30.8794 106.656 30.6841 106.582 30.5032C106.508 30.3223 106.395 30.1605 106.251 30.0296C105.887 29.7627 105.442 29.6335 104.994 29.6646H102.826V32.4996H104.994Z" fill="#FF8159"/>
<path d="M116.582 28.9355V35.5005H115.939L111.632 30.2305V35.5005H110.89V28.9355H111.553L115.85 34.3205V28.9355H116.582Z" fill="#FF8159"/>
<path d="M121.091 28.9355V35.5005H120.349V28.9355H121.091Z" fill="#FF8159"/>
<path d="M135.758 28.9355V35.5005H135.114L130.808 30.2305V35.5005H130.065V28.9355H130.724L135.025 34.3205V28.9355H135.758Z" fill="#FF8159"/>
<path d="M140.267 28.9355V35.5005H139.52V28.9355H140.267Z" fill="#FF8159"/>
<path d="M150.123 34.5002C149.803 34.8628 149.405 35.1467 148.96 35.3302C147.967 35.7075 146.874 35.7234 145.871 35.3752C145.448 35.2239 145.062 34.9836 144.737 34.6702C144.418 34.3657 144.169 33.9935 144.01 33.5802C143.835 33.1347 143.748 32.6593 143.752 32.1802C143.747 31.708 143.832 31.2392 144.005 30.8002C144.165 30.3944 144.41 30.0279 144.722 29.7252C145.046 29.4153 145.431 29.1769 145.851 29.0252C146.328 28.8562 146.831 28.7732 147.336 28.7802C147.896 28.7681 148.452 28.8736 148.97 29.0902C149.429 29.2865 149.838 29.5877 150.162 29.9702L149.539 30.4052C149.273 30.1123 148.947 29.8819 148.583 29.7302C148.188 29.5664 147.764 29.4848 147.336 29.4902C146.952 29.4874 146.57 29.5516 146.207 29.6802C145.874 29.7969 145.568 29.9806 145.307 30.2202C145.051 30.4586 144.847 30.748 144.708 31.0702C144.557 31.4201 144.482 31.7987 144.49 32.1802C144.483 32.5693 144.556 32.9555 144.703 33.3152C144.837 33.6407 145.037 33.9337 145.292 34.1752C145.554 34.4148 145.86 34.5999 146.193 34.7202C146.56 34.8488 146.947 34.9131 147.336 34.9102C147.752 34.9164 148.165 34.8435 148.554 34.6952C148.91 34.5576 149.23 34.3386 149.489 34.0552L150.123 34.5002Z" fill="#FF8159"/>
<path d="M156.904 28.7955C157.41 28.7889 157.913 28.8736 158.389 29.0455C158.812 29.1981 159.198 29.4382 159.523 29.7505C159.838 30.0576 160.085 30.4292 160.246 30.8405C160.423 31.2869 160.51 31.7645 160.503 32.2455C160.507 32.7046 160.421 33.1599 160.251 33.5855C160.09 33.9919 159.848 34.3598 159.538 34.6655C159.214 34.9835 158.828 35.2288 158.404 35.3855C157.93 35.5651 157.426 35.6533 156.919 35.6455C156.413 35.6531 155.91 35.5684 155.434 35.3955C155.014 35.2415 154.628 35.0034 154.301 34.6955C153.984 34.3935 153.734 34.0271 153.568 33.6205C153.396 33.1832 153.31 32.7161 153.316 32.2455C153.311 31.7722 153.395 31.3024 153.563 30.8605C153.723 30.4498 153.968 30.0783 154.281 29.7705C154.605 29.4569 154.989 29.2136 155.41 29.0555C155.887 28.8753 156.394 28.7871 156.904 28.7955ZM156.904 34.9305C157.295 34.9353 157.683 34.8727 158.053 34.7455C158.388 34.6264 158.696 34.4411 158.959 34.2005C159.215 33.965 159.417 33.6746 159.548 33.3505C159.694 33.0011 159.767 32.6248 159.761 32.2455C159.765 31.855 159.692 31.4677 159.548 31.1055C159.412 30.7786 159.207 30.4852 158.949 30.2455C158.685 30.0064 158.377 29.8229 158.043 29.7055C157.678 29.5728 157.292 29.5068 156.904 29.5105C156.498 29.5036 156.095 29.5696 155.711 29.7055C155.379 29.8217 155.074 30.0055 154.816 30.2455C154.569 30.4882 154.377 30.7815 154.251 31.1055C154.118 31.4703 154.053 31.8567 154.058 32.2455C154.053 32.6215 154.125 32.9945 154.271 33.3405C154.41 33.6603 154.612 33.9479 154.865 34.1855C155.131 34.4239 155.438 34.6104 155.771 34.7355C156.134 34.8686 156.518 34.9347 156.904 34.9305Z" fill="#FF8159"/>
<path d="M168.453 34.7905V35.5005H163.998V28.9355H164.741V34.7905H168.453Z" fill="#FF8159"/>
<path d="M172.408 29.6505V31.8705H176.303V32.5705H172.408V34.7905H176.768V35.5005H171.665V28.9355H176.768V29.6505H172.408Z" fill="#FF8159"/>
<path d="M179.372 10.5752C179.127 10.5762 178.887 10.5036 178.683 10.3666C178.479 10.2296 178.319 10.0345 178.225 9.80589C178.131 9.57719 178.106 9.32548 178.153 9.08258C178.201 8.83958 178.319 8.61638 178.492 8.44128C178.666 8.26618 178.887 8.14699 179.127 8.09899C179.368 8.05089 179.617 8.07609 179.843 8.17129C180.07 8.26649 180.263 8.42749 180.398 8.63379C180.534 8.84019 180.606 9.08249 180.605 9.33019C180.605 9.66039 180.475 9.97699 180.244 10.2105C180.013 10.444 179.699 10.5752 179.372 10.5752ZM179.372 8.27019C179.165 8.26919 178.961 8.33048 178.788 8.44638C178.615 8.56228 178.479 8.72749 178.399 8.92109C178.319 9.11469 178.298 9.32798 178.338 9.53388C178.377 9.73978 178.477 9.92918 178.624 10.0779C178.77 10.2267 178.957 10.3281 179.161 10.3694C179.365 10.4107 179.576 10.39 179.768 10.31C179.96 10.2299 180.124 10.094 180.24 9.91958C180.355 9.74518 180.417 9.53999 180.417 9.33019C180.417 9.19119 180.391 9.05348 180.339 8.92488C180.286 8.79628 180.21 8.67938 180.113 8.58098C180.016 8.48248 179.9 8.40428 179.773 8.35098C179.646 8.29758 179.51 8.27019 179.372 8.27019Z" fill="#181818"/>
<path d="M179.961 9.07482C179.964 9.16252 179.937 9.24842 179.887 9.31982C179.836 9.38822 179.765 9.43882 179.684 9.46482L179.966 9.96482H179.739L179.481 9.50982H179.075V9.96482H178.853V8.63482H179.452C179.524 8.63392 179.595 8.64402 179.664 8.66482C179.723 8.68252 179.777 8.71332 179.823 8.75482C179.869 8.78912 179.905 8.83592 179.927 8.88982C179.951 8.94822 179.963 9.01132 179.961 9.07482ZM179.466 9.31482C179.541 9.32072 179.616 9.30132 179.679 9.25982C179.727 9.20952 179.754 9.14232 179.754 9.07232C179.754 9.00242 179.727 8.93522 179.679 8.88482C179.617 8.84182 179.541 8.82242 179.466 8.82982H179.09V9.32982L179.466 9.31482Z" fill="#181818"/>
</svg>
