<svg width="47" height="47" viewBox="0 0 47 47" fill="none" xmlns="http://www.w3.org/2000/svg">
<path d="M23.7542 46.7249C17.7259 46.7417 11.937 44.343 7.65684 40.0549C7.30539 39.7049 6.97374 39.3549 6.64209 38.9799C3.09458 34.9523 1.04677 29.8022 0.850586 24.4149C0.850586 24.1699 0.850586 23.9149 0.850586 23.6799V23.5749C0.939056 17.4947 3.39234 11.6939 7.6803 7.42577C11.9683 3.15768 17.7466 0.765137 23.7666 0.765137C29.7866 0.765137 35.5649 3.15768 39.8529 7.42577C44.1409 11.6939 46.5942 17.4947 46.6826 23.5749C46.682 24.3598 46.6424 25.1441 46.5638 25.9249C46.5391 26.1899 46.5094 26.4249 46.4747 26.7149C46.1481 29.1643 45.4292 31.5437 44.3462 33.7599C44.1878 34.0949 44.0047 34.4499 43.7968 34.8349C41.8062 38.4394 38.899 41.4418 35.3756 43.532C31.8523 45.6222 27.8403 46.7244 23.7542 46.7249ZM23.7542 1.42993C17.9409 1.43522 12.3671 3.76989 8.25598 7.92159C4.14487 12.0733 1.83229 17.7029 1.82574 23.5749V23.6799C1.82574 23.9149 1.82574 24.1399 1.82574 24.3749C2.01093 29.5318 3.97161 34.4618 7.36974 38.3149C7.68654 38.6749 7.99839 39.0099 8.35974 39.3399C10.7663 41.7386 13.6893 43.5426 16.9004 44.6112C20.1114 45.6798 23.5237 45.9839 26.8704 45.4998C30.2171 45.0157 33.4077 43.7565 36.1928 41.8205C38.978 39.8846 41.2822 37.3244 42.9256 34.3399C43.1285 33.9749 43.3018 33.6399 43.4503 33.3399C44.4828 31.2125 45.1649 28.9292 45.4699 26.5799C45.5045 26.3249 45.5293 26.0799 45.554 25.8299C45.6283 25.0699 45.6679 24.3299 45.6679 23.5749C45.6613 17.7055 43.3508 12.0782 39.2429 7.92688C35.135 3.77561 29.565 1.43919 23.7542 1.42993Z" fill="#FF8159"/>
<path d="M44.2181 33.54C44.0498 33.895 43.8716 34.245 43.6786 34.59C37.4119 32.2 31.3432 31.685 25.5962 33.055C22.0669 33.895 19.483 35.215 16.9783 36.5C14.2855 37.875 11.7263 39.18 8.34547 39.695C7.99897 39.355 7.67722 39.01 7.35547 38.645C10.9838 38.255 13.6519 36.89 16.4635 35.45C19.0276 34.135 21.6758 32.78 25.3388 31.91C31.358 30.5 37.6841 31.025 44.2181 33.54Z" fill="#FF8159"/>
<path d="M46.6529 26.6152C43.726 27.8124 40.6711 28.6615 37.5499 29.1452C36.1574 29.3595 34.7509 29.4681 33.3424 29.4702C30.7606 29.4917 28.1942 29.0672 25.754 28.2152C24.3315 27.6863 22.9486 27.0546 21.6158 26.3252C19.5856 25.1586 17.3953 24.3026 15.1165 23.7852C13.6225 23.4589 12.1006 23.2797 10.5724 23.2502C7.40256 23.2086 4.24835 23.7055 1.24164 24.7202L0.850586 23.5002C4.04984 22.4389 7.40372 21.9318 10.7704 22.0002C11.4376 18.5854 13.3402 15.5441 16.107 13.4696C18.8739 11.395 22.3066 10.4359 25.7356 10.7793C29.1647 11.1227 32.3441 12.7441 34.6537 15.3271C36.9634 17.9101 38.2377 21.2696 38.228 24.7502C38.23 25.7781 38.1171 26.8029 37.8914 27.8052C40.7318 27.3129 43.5127 26.5185 46.1876 25.4352L46.6529 26.6152Z" fill="#FF8159"/>
</svg>
