<svg width="48" height="48" viewBox="0 0 48 48" fill="none" xmlns="http://www.w3.org/2000/svg">
<path d="M35.86 20.8297C35.8275 20.7048 35.7681 20.585 35.6889 20.4832C35.1859 19.4828 34.5588 18.408 33.7806 17.2475C33.4247 16.7165 33.1088 16.1496 32.8419 15.5625C32.3364 14.4504 30.6003 15.2348 31.1066 16.3486C31.4164 17.0302 31.7834 17.6886 32.197 18.3056C32.7419 19.1182 33.2059 19.8784 33.6007 20.5936C27.1988 23.1713 19.3036 24.2995 12.8443 21.2259C14.6266 17.2445 16.3634 11.6223 15.4601 6.03955C14.8662 2.36893 13.4023 0.443874 13.3402 0.363747C12.5928 -0.602261 11.08 0.55468 11.8294 1.52297C11.8421 1.53965 13.1031 3.23423 13.6003 6.47811C14.4375 11.9387 12.5085 17.5176 10.7413 21.2383C10.5906 21.5457 9.53479 23.9459 10.241 29.5016C10.7691 33.6561 12.0628 37.6977 14.0861 41.5143C16.0746 45.2651 16.3329 46.4991 16.3515 46.8556C16.4157 48.0756 18.3196 47.9946 18.2545 46.7558C18.2336 46.359 18.1702 45.1512 15.7703 40.6245C13.8548 37.0113 12.6305 33.1885 12.1314 29.2622C11.8196 26.8099 11.8812 24.9534 12.053 23.7102C17.1998 27.2763 20.6949 31.2484 21.6029 32.3289C21.3514 38.7012 20.9283 45.654 20.6409 46.4814C20.2235 47.6298 22.0153 48.2777 22.4322 47.1302C22.9478 45.7112 23.3926 35.2913 23.5068 32.4089C24.5242 31.2143 29.5553 25.4572 34.505 22.4192C36.1192 26.1328 35.6904 28.507 35.2719 30.8215C34.4681 35.2667 32.615 39.5196 31.0039 43.7217C30.3274 45.4861 30.0252 46.2785 29.9505 46.5712C29.6501 47.7501 31.4838 48.2218 31.797 47.0411C31.8542 46.8251 32.3056 45.6479 32.7835 44.4017C34.4381 40.0863 36.321 35.7245 37.1471 31.1594C37.6054 28.6243 38.1549 25.5856 35.86 20.8297ZM22.5916 30.5525C21.4948 29.297 19.2291 26.8718 16.0449 24.3155C20.3455 25.3116 24.8698 25.0706 29.1383 24.0326C26.2335 26.512 23.7726 29.2028 22.5916 30.5525Z" fill="#FF8159"/>
<path d="M30.671 9.41795C31.1837 9.44882 31.6472 9.03522 31.6765 8.52264C31.9033 4.55904 33.2983 1.36185 33.3124 1.32994C33.8071 0.213582 32.0664 -0.557871 31.57 0.559816C31.5069 0.701968 30.0215 4.09047 29.774 8.41412C29.744 8.93852 30.1456 9.38803 30.671 9.41795Z" fill="#FF8159"/>
<path d="M22.0524 17.7381C22.5786 17.7381 23.0051 17.3122 23.0051 16.787V14.7868C23.0051 13.5683 21.0996 13.566 21.0996 14.7868V16.787C21.0996 17.3122 21.5262 17.7381 22.0524 17.7381Z" fill="#FF8159"/>
<path d="M31.7598 11.7511C31.538 11.4122 31.102 11.2553 30.7136 11.3634C30.314 11.4746 30.0256 11.8408 30.0159 12.2556C29.9961 13.1024 31.0669 13.5535 31.6561 12.9364C31.9606 12.6175 32.0051 12.1184 31.7598 11.7511Z" fill="#FF8159"/>
</svg>
