<svg width="53" height="23" viewBox="0 0 53 23" fill="none" xmlns="http://www.w3.org/2000/svg">
<path d="M48.1632 8.47335C47.1057 8.47335 47.2161 9.81453 47.1722 11.2464H48.9343C48.9343 9.63246 48.9343 8.47335 48.1632 8.47335ZM47.1722 13.5876C47.1722 14.883 47.7889 15.133 48.8242 15.133C50.0139 15.133 51.6217 14.7691 52.2385 14.6556V17.7925C51.7541 17.9745 50.2782 18.4059 48.8242 18.4059C46.2028 18.4059 43.0083 17.9741 43.0083 12.2009C43.0083 7.1094 45.5197 5.90477 48.1631 5.90477C50.8728 5.90477 52.8333 7.33675 52.8333 12.1554V13.5876H47.1722ZM36.8389 9.08698C36.5968 9.08698 36.112 9.29157 35.8478 9.45088V15.2693C36.0459 15.3378 36.3984 15.3832 36.5527 15.3832C37.2798 15.3832 37.7203 14.7467 37.7203 12.0875C37.7201 9.38248 37.5217 9.08698 36.8389 9.08698ZM37.3234 18.4061C36.7948 18.4061 36.244 18.2471 35.8476 18.156V22.4975H31.6621V6.13212H35.0544L35.6714 6.88218C36.3101 6.29131 37.2135 5.90477 38.1606 5.90477C39.8787 5.90477 41.9053 6.40473 41.9053 12.0871C41.9053 18.3155 38.8655 18.4061 37.3234 18.4061ZM27.8063 4.65475C26.6389 4.65475 25.7358 3.67734 25.7358 2.49534C25.7358 1.31335 26.6389 0.335938 27.8063 0.335938C28.974 0.335938 29.8772 1.31335 29.8772 2.49534C29.8772 3.67734 28.974 4.65475 27.8063 4.65475ZM25.7137 18.1789V6.13212H29.8992V18.1789H25.7137ZM23.1794 9.51891C22.5185 9.51891 22.0118 9.79177 21.7915 9.92808V18.1789H17.6061V6.13212H20.9325L21.5492 7.29123C21.7915 6.54116 22.4524 5.90465 23.4217 5.90465C24.0826 5.90465 24.5231 6.04108 24.7212 6.15463V9.74576C24.3027 9.63246 23.7521 9.51891 23.1794 9.51891ZM15.2261 15.1331C15.4904 15.1331 16.4158 14.997 16.7238 14.9512V18.0197C16.0853 18.1787 14.6753 18.4061 13.7502 18.4061C12.5605 18.4061 10.3357 18.27 10.3357 14.9287V8.88252H8.79377V6.13212H10.336L10.8646 3.4046L14.5213 2.49546V6.13224H16.7242L16.1736 8.88264H14.5215V14.156C14.5212 14.974 14.7635 15.1331 15.2261 15.1331ZM4.40881 9.60982C4.40881 10.0871 4.71737 10.2462 5.44419 10.5871L5.88485 10.7918C6.9201 11.2691 8.35179 12.042 8.35179 14.315C8.35179 17.9517 5.73033 18.4063 3.85798 18.4063C2.64639 18.4063 1.36874 18.1108 0.50959 17.8383V14.7241C1.25846 14.929 2.5584 15.2468 3.13093 15.2468C3.76975 15.2468 4.25441 15.1561 4.25441 14.565C4.25441 14.1105 3.94597 13.906 3.26315 13.5879L2.73438 13.3378C1.74324 12.8603 0.333252 12.0423 0.333252 9.83741C0.333252 6.60969 2.77837 5.90526 4.82718 5.90526C6.36927 5.90526 7.38259 6.26879 7.91113 6.4735V9.49652C7.29424 9.29206 6.03889 9.0192 5.2899 9.0192C4.78331 9.01895 4.40881 9.15513 4.40881 9.60982Z" fill="#359AD5"/>
</svg>
