<svg width="48" height="16" viewBox="0 0 48 16" fill="none" xmlns="http://www.w3.org/2000/svg">
<path d="M17.6104 14.7034L19.9807 1.37012H23.6844L21.3881 14.7034H17.6104Z" fill="#3C58BF"/>
<path d="M17.6104 14.7034L20.6474 1.37012H23.6844L21.3881 14.7034H17.6104Z" fill="#293688"/>
<path d="M34.7974 1.51837C34.0567 1.22208 32.8715 0.925781 31.39 0.925781C27.6863 0.925781 25.0197 2.77763 25.0197 5.4443C25.0197 7.4443 26.8715 8.48133 28.353 9.148C29.8345 9.81467 30.2789 10.2591 30.2789 10.8517C30.2789 11.7406 29.0937 12.185 28.0567 12.185C26.5752 12.185 25.7604 11.9628 24.5011 11.4443L23.9826 11.2221L23.4641 14.2591C24.353 14.6295 25.9826 14.9999 27.6863 14.9999C31.6123 14.9999 34.2049 13.148 34.2049 10.3332C34.2049 8.77763 33.2419 7.59245 31.0197 6.62948C29.6863 5.96282 28.8715 5.59245 28.8715 4.92578C28.8715 4.33319 29.5382 3.74059 31.0197 3.74059C32.2789 3.74059 33.1678 3.96282 33.8345 4.25911L34.2049 4.40726L34.7974 1.51837Z" fill="#3C58BF"/>
<path d="M34.7974 1.51837C34.0567 1.22208 32.8715 0.925781 31.39 0.925781C27.6863 0.925781 25.6863 2.77763 25.6863 5.4443C25.6863 7.4443 26.8715 8.48133 28.353 9.148C29.8345 9.81467 30.2789 10.2591 30.2789 10.8517C30.2789 11.7406 29.0937 12.185 28.0567 12.185C26.5752 12.185 25.7604 11.9628 24.5011 11.4443L23.9826 11.2221L23.4641 14.2591C24.353 14.6295 25.9826 14.9999 27.6863 14.9999C31.6123 14.9999 34.2049 13.148 34.2049 10.3332C34.2049 8.77763 33.2419 7.59245 31.0197 6.62948C29.6863 5.96282 28.8715 5.59245 28.8715 4.92578C28.8715 4.33319 29.5382 3.74059 31.0197 3.74059C32.2789 3.74059 33.1678 3.96282 33.8345 4.25911L34.2049 4.40726L34.7974 1.51837Z" fill="#293688"/>
<path d="M41.1678 1.37012C40.2789 1.37012 39.6122 1.44419 39.2418 2.33308L33.6863 14.7034H37.6863L38.427 12.4812H43.1678L43.6122 14.7034H47.1678L44.0567 1.37012H41.1678ZM39.4641 10.259C39.6863 9.59234 40.9455 6.33308 40.9455 6.33308C40.9455 6.33308 41.2418 5.51827 41.4641 4.99975L41.6863 6.25901C41.6863 6.25901 42.427 9.59234 42.5752 10.3331H39.4641V10.259Z" fill="#3C58BF"/>
<path d="M42.0567 1.37012C41.1678 1.37012 40.5011 1.44419 40.1307 2.33308L33.6863 14.7034H37.6863L38.427 12.4812H43.1678L43.6122 14.7034H47.1678L44.0567 1.37012H42.0567ZM39.4641 10.259C39.7604 9.51826 40.9455 6.33308 40.9455 6.33308C40.9455 6.33308 41.2418 5.51827 41.4641 4.99975L41.6863 6.25901C41.6863 6.25901 42.427 9.59234 42.5752 10.3331H39.4641V10.259Z" fill="#293688"/>
<path d="M10.7975 10.7036L10.4271 8.77767C9.76046 6.55545 7.61231 4.111 5.24194 2.92582L8.57528 14.7777H12.5753L18.5753 1.44434H14.5753L10.7975 10.7036Z" fill="#3C58BF"/>
<path d="M10.7975 10.7036L10.4271 8.77767C9.76046 6.55545 7.61231 4.111 5.24194 2.92582L8.57528 14.7777H12.5753L18.5753 1.44434H15.316L10.7975 10.7036Z" fill="#293688"/>
<path d="M0.5 1.37012L1.16667 1.51827C5.90741 2.62938 9.16667 5.44419 10.4259 8.77752L9.09259 2.48123C8.87037 1.59234 8.2037 1.37012 7.38889 1.37012H0.5Z" fill="#FFBC00"/>
<path d="M0.5 1.37012C5.24074 2.48123 9.16667 5.37013 10.4259 8.70347L9.16667 3.4442C8.94444 2.55531 8.2037 2.03679 7.38889 2.03679L0.5 1.37012Z" fill="#F7981D"/>
<path d="M0.5 1.37012C5.24074 2.48123 9.16667 5.37013 10.4259 8.70347L9.53704 5.81457C9.31481 4.92568 9.01852 4.03679 7.98148 3.66642L0.5 1.37012Z" fill="#ED7C00"/>
<path d="M14.4999 10.259L11.9814 7.74045L10.7962 10.5553L10.4999 8.70341C9.83322 6.48119 7.68507 4.03675 5.3147 2.85156L8.64803 14.7034H12.648L14.4999 10.259Z" fill="#051244"/>
<path d="M21.3896 14.7031L18.2044 11.4438L17.6118 14.7031H21.3896Z" fill="#051244"/>
<path d="M29.9081 10.1108C30.2044 10.4071 30.3525 10.6294 30.2784 10.9257C30.2784 11.8145 29.0933 12.259 28.0562 12.259C26.5747 12.259 25.7599 12.0368 24.5007 11.5182L23.9821 11.296L23.4636 14.333C24.3525 14.7034 25.9821 15.0738 27.6858 15.0738C30.0562 15.0738 31.9821 14.4071 33.0933 13.2219L29.9081 10.1108Z" fill="#051244"/>
<path d="M34.2029 14.7037H37.6844L38.4251 12.4815H43.1658L43.6103 14.7037H47.1658L45.9066 9.29629L41.4621 5L41.6844 6.18518C41.6844 6.18518 42.4251 9.51852 42.5733 10.2593H39.4621C39.7584 9.51852 40.9436 6.33333 40.9436 6.33333C40.9436 6.33333 41.2399 5.51852 41.4621 5" fill="#051244"/>
</svg>
