<svg width="48" height="48" viewBox="0 0 48 48" fill="none" xmlns="http://www.w3.org/2000/svg">
<g clip-path="url(#clip0)">
<path d="M45.5997 40.1302L2.40029 40.1302C1.77106 40.1295 1.1672 39.8871 0.718438 39.4551C0.269681 39.023 0.011842 38.4357 0.000321642 37.8194C-0.021979 36.5045 1.1122 35.4282 2.45488 35.4282L12.6747 35.4282L6.51133 28.2928C6.02791 27.7321 5.58381 27.14 5.18205 26.5206C5.13965 26.4699 4.25946 24.9499 3.93607 24.2111L3.20928 22.5496C2.65979 21.2872 2.545 19.8838 2.88229 18.5517L3.67028 15.4644L2.65289 15.7966C2.51194 15.8426 2.3607 15.8493 2.2161 15.8158C2.0715 15.7824 1.93926 15.7102 1.8342 15.6073L1.03421 14.8236C0.959972 14.7508 0.901107 14.6644 0.860973 14.5693C0.820842 14.4741 0.800228 14.3722 0.800311 14.2693L0.800312 11.9183C0.8003 11.7728 0.841659 11.6301 0.919761 11.5063C0.997863 11.3825 1.10962 11.2824 1.24251 11.2173L2.72638 10.4906L4.55886 8.6955C4.78396 8.475 5.05119 8.30008 5.34529 8.18075C5.63939 8.06142 5.95461 8 6.27294 8L6.37554 8C6.71595 7.99992 7.05254 8.07022 7.36332 8.20631C7.6741 8.3424 7.95205 8.5412 8.17901 8.78973C8.87615 8.82351 9.54543 9.06829 10.0946 9.49033C10.5908 9.88163 10.9621 10.4041 11.1646 10.9957L11.9592 13.2378C12.019 13.4136 12.0132 13.6045 11.943 13.7766L11.2002 15.5957L11.2002 17.404C11.2002 17.6118 11.1159 17.8111 10.9659 17.9581C10.8158 18.1051 10.6124 18.1876 10.4002 18.1876L8.8002 18.1876L8.8002 19.0753L9.58069 19.1845L12.4925 19.5919C13.244 19.6971 13.9315 20.0643 14.4289 20.6261C14.9263 21.1879 15.2001 21.9065 15.2001 22.6502L15.2001 25.8072L16.9589 28.6789L24.8252 20.9731C25.2611 20.5461 25.7868 20.2172 26.3657 20.0093C26.9445 19.8014 27.5626 19.7195 28.1771 19.7693C28.7915 19.8191 29.3875 19.9994 29.9235 20.2977C30.4596 20.596 30.923 21.0051 31.2813 21.4965L38.1656 30.9377L40.3282 32.3499L43.3937 33.1006C43.5668 33.143 43.7205 33.2409 43.8303 33.3786C43.9401 33.5164 43.9997 33.6861 43.9997 33.8609L43.9997 35.4282L45.5451 35.4282C46.8878 35.4282 48.022 36.5045 47.9997 37.8195C47.9882 38.4357 47.7303 39.023 47.2816 39.4551C46.8328 39.8871 46.2289 40.1295 45.5997 40.1302ZM8.80021 10.5351L8.8002 11.5937L9.3977 11.0084C9.23625 10.8097 9.03229 10.6482 8.80021 10.5351ZM9.60019 16.6203L9.60019 15.4448C9.60019 15.3451 9.6196 15.2463 9.65739 15.1538L10.3485 13.4611L10.0506 12.5854L8.80061 13.8099L8.80061 16.6203L9.60019 16.6203ZM9.3075 22.6229L8.8241 20.7286L8.8196 20.7104L8.80801 20.6596L7.88702 20.5307C7.69641 20.504 7.52201 20.4108 7.39585 20.2683C7.2697 20.1258 7.20024 19.9436 7.20022 19.7549L7.20023 10.3752C7.19999 10.161 7.11303 9.95565 6.95842 9.8042C6.80381 9.65274 6.59418 9.56756 6.37554 9.56732L6.27294 9.56732C6.16468 9.56702 6.05744 9.58776 5.95742 9.62833C5.8574 9.6689 5.76659 9.72851 5.69025 9.80369L3.76597 11.6888C3.7052 11.7484 3.635 11.798 3.55807 11.8357L2.40029 12.4026L2.40029 13.9447L2.61629 14.1564L3.07568 14.0064L4.58946 12.5509C4.71595 12.4294 4.88005 12.3524 5.05603 12.332C5.23201 12.3117 5.4099 12.3492 5.56178 12.4386C5.71366 12.528 5.83095 12.6643 5.89523 12.826C5.95951 12.9878 5.96715 13.1659 5.91694 13.3323L4.43496 18.932C4.18188 19.9316 4.26807 20.9848 4.68046 21.9323L5.40725 23.5937C5.6551 24.1596 5.93899 24.7096 6.25724 25.2406L7.22122 25.2406C7.54806 25.2406 7.8706 25.1676 8.16435 25.0273C8.45809 24.8869 8.7153 24.6827 8.91644 24.4304C9.11758 24.178 9.25736 23.8841 9.32516 23.5709C9.39295 23.2577 9.38698 22.9335 9.3077 22.6229L9.3075 22.6229ZM13.7141 26.4274C13.6396 26.3056 13.6002 26.1663 13.6001 26.0242L13.6001 22.6502C13.6 22.2839 13.4651 21.9298 13.2201 21.6531C12.9751 21.3764 12.6364 21.1954 12.2663 21.1435L10.5163 20.8986L10.8593 22.2426C10.9952 22.7745 11.0078 23.3296 10.8961 23.8669C10.7844 24.4043 10.5512 24.9103 10.2137 25.3478C9.87625 25.7853 9.44301 26.1432 8.94583 26.3953C8.44864 26.6473 7.90015 26.787 7.34062 26.8042C7.46852 26.9655 7.59862 27.1249 7.73282 27.2802L13.8945 34.4137L14.039 33.567C14.2705 32.1909 14.8816 30.9031 15.8061 29.8425L13.7141 26.4274ZM29.9794 22.4073C29.7561 22.1011 29.4674 21.8462 29.1334 21.6603C28.7994 21.4745 28.428 21.3621 28.0451 21.3311C27.6623 21.3 27.2771 21.3511 26.9164 21.4806C26.5558 21.6102 26.2282 21.8151 25.9566 22.0812L17.3658 30.4967C16.4411 31.3992 15.8295 32.5635 15.6173 33.8251L15.3444 35.4282L19.6001 35.4282L27.3344 24.8058C27.4092 24.6959 27.5112 24.6063 27.6309 24.5453C27.7506 24.4843 27.8841 24.454 28.019 24.4571C28.1539 24.4603 28.2858 24.4968 28.4024 24.5633C28.519 24.6298 28.6165 24.7241 28.6859 24.8374L31.0353 28.673L35.1998 32.7526L36.5549 31.4252L29.9794 22.4073ZM21.6 35.4282L34.8899 35.4282L34.5006 34.2842L29.8342 29.713C29.7881 29.6677 29.7478 29.617 29.7142 29.5621L27.9647 26.7056L21.6 35.4282ZM42.3997 34.4727L39.8058 33.8375C39.7167 33.8157 39.6321 33.7791 39.5558 33.7292L37.7016 32.5183L36.1149 34.0726L36.5764 35.4282L42.3997 35.4282L42.3997 34.4727ZM45.5997 36.9955L2.40029 36.9955C2.18812 36.9955 1.98464 37.0781 1.83461 37.2251C1.68458 37.372 1.6003 37.5713 1.6003 37.7792C1.6003 37.987 1.68458 38.1864 1.83461 38.3333C1.98464 38.4803 2.18812 38.5628 2.40029 38.5628L45.5997 38.5629C45.8119 38.5629 46.0154 38.4803 46.1654 38.3333C46.3154 38.1864 46.3997 37.987 46.3997 37.7792C46.3997 37.5713 46.3154 37.372 46.1654 37.2251C46.0154 37.0781 45.8119 36.9955 45.5997 36.9955Z" fill="#FF8159"/>
<path d="M6.20833 31.653L7.00832 32.5674C7.07768 32.6454 7.13058 32.7361 7.16399 32.8342C7.19739 32.9323 7.21064 33.0359 7.20296 33.1391C7.19528 33.2423 7.16682 33.3429 7.11924 33.4353C7.07165 33.5276 7.00587 33.6098 6.9257 33.6771C6.84552 33.7444 6.75254 33.7955 6.6521 33.8275C6.55167 33.8594 6.44578 33.8716 6.34053 33.8632C6.23528 33.8549 6.13275 33.8262 6.03887 33.7788C5.94499 33.7315 5.86161 33.6664 5.79354 33.5873L4.99355 32.6731C4.92518 32.5949 4.87318 32.5044 4.84054 32.4066C4.8079 32.3087 4.79524 32.2056 4.8033 32.103C4.81135 32.0004 4.83996 31.9003 4.88749 31.8085C4.93502 31.7168 5.00053 31.635 5.0803 31.5681C5.16006 31.5011 5.25251 31.4502 5.35237 31.4182C5.45223 31.3862 5.55753 31.3738 5.66228 31.3817C5.76703 31.3896 5.86916 31.4176 5.96286 31.4642C6.05655 31.5107 6.13996 31.5749 6.20833 31.653Z" fill="#FF8159"/>
<path d="M2.20818 27.0817L4.60814 29.8246C4.74624 29.9824 4.81469 30.1874 4.79843 30.3947C4.78217 30.6019 4.68253 30.7943 4.52144 30.9296C4.36035 31.0649 4.151 31.132 3.93944 31.116C3.72789 31.1001 3.53146 31.0025 3.39336 30.8447L0.993393 28.1019C0.855296 27.9441 0.78685 27.739 0.803109 27.5318C0.819368 27.3245 0.919002 27.1321 1.08009 26.9968C1.24118 26.8615 1.45053 26.7945 1.66209 26.8104C1.87365 26.8263 2.07008 26.9239 2.20818 27.0817Z" fill="#FF8159"/>
</g>
<defs>
<clipPath id="clip0">
<rect width="48" height="48" fill="white" transform="matrix(-1 -8.74228e-08 -8.74228e-08 1 48 0)"/>
</clipPath>
</defs>
</svg>
