<svg width="16" height="16" viewBox="0 0 16 16" fill="none" xmlns="http://www.w3.org/2000/svg">
<path d="M3.18839 5.54766C4.43231 6.59376 6.61499 8.43415 7.25651 9.00799C7.34262 9.08544 7.43499 9.12481 7.53088 9.12481C7.62658 9.12481 7.71879 9.08581 7.80472 9.00873C8.44678 8.43433 10.6295 6.59376 11.8734 5.54766C11.9508 5.48266 11.9626 5.3684 11.8999 5.28893C11.755 5.10529 11.5389 5 11.3073 5H3.75448C3.52289 5 3.30677 5.10529 3.16184 5.28895C3.09914 5.3684 3.11095 5.48266 3.18839 5.54766Z" fill="white"/>
<path d="M11.9539 6.11416C11.8869 6.08322 11.8082 6.09402 11.7525 6.14127C10.373 7.30251 8.61243 8.79099 8.0585 9.28664C7.7476 9.56533 7.31611 9.56533 7.00449 9.28627C6.41406 8.75802 4.43697 7.08901 3.31088 6.14125C3.25482 6.094 3.1759 6.08357 3.10952 6.11414C3.04279 6.14492 3 6.21121 3 6.28426V10.9996C3 11.4132 3.33873 11.7496 3.75529 11.7496H11.3081C11.7247 11.7496 12.0634 11.4132 12.0634 10.9996V6.28426C12.0634 6.21121 12.0206 6.14475 11.9539 6.11416Z" fill="white"/>
</svg>
