<svg width="32" height="32" viewBox="0 0 32 32" fill="none" xmlns="http://www.w3.org/2000/svg">
<g clip-path="url(#clip0)">
<path d="M17.6101 11.8675C17.8695 11.8675 18.0798 11.6573 18.0798 11.3978V6.98594C18.0798 6.11619 17.3723 5.40869 16.5026 5.40869H15.6396C15.0852 5.40869 14.5652 5.70507 14.2826 6.18213L12.9171 8.48713C12.4739 9.23538 12.7221 10.2048 13.4703 10.648C13.9297 10.92 14.4723 10.9316 14.9254 10.7269V16.3203C14.9254 17.1899 15.6329 17.8976 16.5026 17.8976C17.3723 17.8976 18.0799 17.19 18.0799 16.3203V13.2766C18.0799 13.0172 17.8696 12.8069 17.6101 12.8069C17.3507 12.8069 17.1404 13.0172 17.1404 13.2766V16.3203C17.1404 16.672 16.8543 16.9581 16.5026 16.9581C16.1509 16.9581 15.8648 16.672 15.8648 16.3203V9.57175C15.8648 9.36013 15.7233 9.17463 15.5191 9.11875C15.3151 9.06282 15.0987 9.15025 14.9909 9.33238L14.8229 9.61613C14.6437 9.91869 14.2516 10.0188 13.9491 9.83982C13.6465 9.66057 13.5462 9.26844 13.7253 8.96588L15.0908 6.66094C15.2051 6.468 15.4154 6.34813 15.6396 6.34813H16.5026C16.8543 6.34813 17.1404 6.63425 17.1404 6.98594V11.3978C17.1403 11.6572 17.3506 11.8675 17.6101 11.8675Z" fill="#FF8159"/>
<path d="M25.2794 11.6529C25.2794 6.53598 21.1165 2.37305 15.9995 2.37305C10.8826 2.37305 6.71973 6.53592 6.71973 11.6529C6.71973 11.9123 6.93004 12.1226 7.18948 12.1226C7.44891 12.1226 7.65916 11.9124 7.65916 11.6529C7.65916 7.05398 11.4006 3.31248 15.9995 3.31248C20.5985 3.31248 24.3399 7.05398 24.3399 11.6529C24.3399 16.2518 20.5985 19.9933 15.9995 19.9933C14.0827 19.9933 12.2109 19.327 10.7289 18.1172C9.26723 16.924 8.24398 15.2574 7.8476 13.4247C7.79273 13.1711 7.54291 13.0095 7.28923 13.0649C7.03566 13.1197 6.8746 13.3697 6.92941 13.6232C7.3706 15.6632 8.50898 17.5175 10.1349 18.8449C11.784 20.1913 13.8668 20.9327 15.9995 20.9327C21.1165 20.9327 25.2794 16.7698 25.2794 11.6529Z" fill="#FF8159"/>
<path d="M24.848 24.925C24.7627 24.6801 24.4952 24.5505 24.25 24.6358C24.005 24.7211 23.8755 24.9888 23.9608 25.2339L25.1404 28.6227L21.9199 28.2856C21.7808 28.271 21.6426 28.3191 21.5426 28.4169L19.2275 30.6808L16.6541 23.2874C18.8442 23.1656 20.8746 22.4361 22.5796 21.2654L23.3427 23.4579C23.5785 24.0496 24.4049 23.7192 24.2299 23.149L23.3683 20.6737C25.9817 18.5349 27.6528 15.2856 27.6528 11.653C27.6528 5.22756 22.4253 0 15.9997 0C9.57418 0 4.34668 5.22756 4.34668 11.6531C4.34668 15.2857 6.01774 18.535 8.63118 20.6737L5.72874 29.0126C5.62255 29.2883 5.86593 29.6782 6.2213 29.6341L9.95793 29.2429L12.6441 31.8697C12.8502 32.0871 13.3024 32.0276 13.4161 31.6883L15.9997 24.2654L18.5834 31.6884C18.6826 31.9839 19.0904 32.1192 19.3554 31.8697L22.0416 29.2429L25.7782 29.6342C26.0886 29.6737 26.3821 29.3503 26.2707 29.0126L24.848 24.925ZM5.28612 11.6531C5.28612 5.74556 10.0922 0.939438 15.9997 0.939438C21.9072 0.939438 26.7134 5.7455 26.7134 11.6531C26.7134 17.5606 21.9072 22.3668 15.9997 22.3668C10.0922 22.3668 5.28612 17.5606 5.28612 11.6531ZM12.7721 30.6809L10.4569 28.4169C10.3569 28.3192 10.2187 28.2712 10.0796 28.2856L6.85918 28.6228L9.41999 21.2654C11.125 22.4362 13.1554 23.1656 15.3454 23.2874L12.7721 30.6809Z" fill="#FF8159"/>
</g>
<defs>
<clipPath id="clip0">
<rect width="32" height="32" fill="white"/>
</clipPath>
</defs>
</svg>
