<svg width="198" height="66" viewBox="0 0 198 66" fill="none" xmlns="http://www.w3.org/2000/svg">
<path d="M30.7542 54.178C24.7259 54.1945 18.937 51.8199 14.6568 47.5747C14.3054 47.2282 13.9737 46.8817 13.6421 46.5104C10.0946 42.523 8.04677 37.4245 7.85059 32.091C7.85059 31.8485 7.85059 31.596 7.85059 31.3634V31.2594C7.93906 25.2401 10.3923 19.4972 14.6803 15.2718C18.9683 11.0464 24.7466 8.67773 30.7666 8.67773C36.7866 8.67773 42.565 11.0464 46.8529 15.2718C51.1409 19.4972 53.5942 25.2401 53.6827 31.2594C53.6821 32.0364 53.6424 32.8129 53.5639 33.5859C53.5391 33.8483 53.5094 34.0809 53.4748 34.368C53.1481 36.7929 52.4292 39.1485 51.3463 41.3426C51.1879 41.6743 51.0047 42.0257 50.7968 42.4069C48.8062 45.9753 45.8991 48.9476 42.3757 51.017C38.8523 53.0863 34.8404 54.1775 30.7542 54.178ZM30.7542 9.33588C24.9409 9.34112 19.3671 11.6524 15.256 15.7626C11.1449 19.8728 8.83229 25.4461 8.82574 31.2594V31.3634C8.82574 31.596 8.82574 31.8188 8.82574 32.0514C9.01093 37.1568 10.9716 42.0375 14.3697 45.8521C14.6865 46.2085 14.9984 46.5401 15.3597 46.8668C17.7663 49.2415 20.6893 51.0275 23.9004 52.0854C27.1115 53.1433 30.5237 53.4443 33.8704 52.9651C37.2171 52.4858 40.4077 51.2392 43.1929 49.3226C45.978 47.406 48.2823 44.8714 49.9256 41.9168C50.1286 41.5555 50.3018 41.2238 50.4503 40.9268C51.4828 38.8206 52.1649 36.5601 52.4699 34.2344C52.5046 33.9819 52.5293 33.7394 52.5541 33.4919C52.6283 32.7395 52.6679 32.0069 52.6679 31.2594C52.6614 25.4487 50.3508 19.8776 46.2429 15.7679C42.135 11.6581 36.565 9.34505 30.7542 9.33588Z" fill="#FF8159"/>
<path d="M51.2176 41.1245C51.0493 41.4759 50.8711 41.8224 50.6781 42.164C44.4114 39.7979 38.3427 39.288 32.5957 40.6443C29.0664 41.4759 26.4825 42.7827 23.9778 44.0549C21.285 45.4161 18.7258 46.7081 15.345 47.2179C14.9985 46.8813 14.6767 46.5398 14.355 46.1784C17.9833 45.7923 20.6514 44.441 23.463 43.0154C26.0271 41.7135 28.6753 40.3721 32.3383 39.5108C38.3575 38.1148 44.6836 38.6346 51.2176 41.1245Z" fill="#FF8159"/>
<path d="M53.653 34.2687C50.7261 35.4539 47.6712 36.2945 44.5499 36.7734C43.1574 36.9855 41.751 37.0931 40.3424 37.0951C37.7606 37.1164 35.1942 36.6962 32.7541 35.8527C31.3316 35.329 29.9486 34.7037 28.6159 33.9816C26.5856 32.8267 24.3954 31.9792 22.1165 31.467C20.6225 31.1439 19.1007 30.9665 17.5724 30.9373C14.4026 30.8961 11.2484 31.3881 8.24164 32.3926L7.85059 31.1848C11.0498 30.1342 14.4037 29.6321 17.7704 29.6998C18.4376 26.3192 20.3402 23.3083 23.1071 21.2545C25.8739 19.2006 29.3066 18.2511 32.7357 18.5911C36.1647 18.9311 39.3441 20.5362 41.6538 23.0934C43.9634 25.6506 45.2377 28.9765 45.2281 32.4223C45.2301 33.4399 45.1171 34.4545 44.8915 35.4468C47.7319 34.9594 50.5127 34.1729 53.1877 33.1005L53.653 34.2687Z" fill="#FF8159"/>
<path d="M71.2801 21.3195L70.8296 23.9083H76.8785L76.4924 26.0121H70.4534L69.5971 30.9324H67.1221C67.4521 28.9722 67.7969 27.0153 68.1566 25.0617C68.5163 23.1081 68.8595 21.1495 69.1862 19.186H78.3982L78.0121 21.3195H71.2801Z" fill="white"/>
<path d="M82.8431 19.186L80.7592 30.9324H78.3535L80.4226 19.186H82.8431Z" fill="white"/>
<path d="M93.1592 21.3195H89.412L87.7142 30.9324H85.3134L87.0113 21.3195H83.1602L83.5611 19.186H93.5552L93.1592 21.3195Z" fill="white"/>
<path d="M116.419 19.186L110.454 30.9324H107.796L106.89 23.6212H106.826L103.178 30.9324H100.554L98.8564 19.186H101.549L102.336 28.591H102.406L106.519 19.186H108.757L109.563 28.6158H109.633C110.293 27.0912 110.972 25.522 111.672 23.9083C112.372 22.2946 113.058 20.7205 113.731 19.186H116.419Z" fill="white"/>
<path d="M120.721 19.186L118.637 30.9324H116.236L118.305 19.186H120.721Z" fill="white"/>
<path d="M131.041 21.3195H127.294L125.596 30.9324H123.191L124.888 21.3195H121.022L121.428 19.186H131.442L131.041 21.3195Z" fill="white"/>
<path d="M144.387 19.186L142.318 30.9324H139.917L140.754 26.1457H134.74L133.883 30.9324H131.478L133.547 19.186H135.967L135.136 24.0271H141.125L141.981 19.186H144.387Z" fill="white"/>
<path d="M163.207 19.186L161.142 30.9324H158.737L159.578 26.1457H153.564L152.703 30.9324H150.302L152.366 19.186H154.787L153.945 24.0271H159.964L160.821 19.186H163.207Z" fill="white"/>
<path d="M167.998 21.3195L167.542 23.9083H173.596L173.21 26.0121H167.191L166.696 28.7643H173.453L173.082 30.9324H163.845C164.195 28.9722 164.539 27.0153 164.879 25.0617C165.219 23.1081 165.564 21.1495 165.914 19.186H175.126L174.735 21.3195H167.998Z" fill="white"/>
<path d="M186.382 21.8095C186.472 22.3894 186.462 22.9804 186.353 23.5569C186.248 24.0686 186.053 24.5579 185.779 25.0023C185.506 25.4334 185.155 25.8095 184.744 26.1111C184.31 26.4314 183.824 26.6758 183.309 26.8338L184.521 30.9522H181.913L180.838 27.1011H178.2C178.076 27.7842 177.967 28.4277 177.864 29.0266C177.76 29.6256 177.651 30.2592 177.527 30.9324H175.111C175.458 28.9953 175.808 27.0351 176.161 25.0518C176.514 23.0685 176.864 21.1132 177.21 19.186H182.403C182.846 19.1856 183.288 19.2254 183.724 19.3048C184.141 19.3779 184.544 19.5166 184.917 19.7157C185.28 19.9127 185.597 20.1843 185.848 20.5126C186.13 20.8944 186.314 21.3398 186.382 21.8095ZM183.645 24.0915C183.773 23.8466 183.867 23.585 183.922 23.3143C183.982 23.0396 183.995 22.7569 183.962 22.4778C183.943 22.3047 183.885 22.138 183.794 21.9899C183.702 21.8418 183.579 21.7159 183.432 21.6214C183.117 21.4286 182.752 21.3306 182.383 21.3393H179.24L178.586 24.9528H181.556C181.744 24.9528 181.937 24.9528 182.135 24.9528C182.327 24.9359 182.516 24.8977 182.7 24.8389C182.878 24.7823 183.046 24.6952 183.195 24.5815C183.373 24.447 183.526 24.2809 183.645 24.0915Z" fill="white"/>
<path d="M72.0672 39.783C72.2685 39.7903 72.4662 39.8384 72.6483 39.9245C72.8304 40.0106 72.993 40.1329 73.1264 40.2838C73.2597 40.4348 73.361 40.6113 73.424 40.8026C73.487 40.9939 73.5104 41.196 73.4928 41.3967C73.5115 41.6543 73.4568 41.912 73.335 42.1397C73.2132 42.3675 73.0294 42.5561 72.8048 42.6837C72.1303 42.9837 71.3932 43.1161 70.6565 43.0698H67.6519V36.5655H70.6565C71.359 36.5135 72.062 36.6592 72.686 36.9862C72.896 37.1335 73.0642 37.3326 73.1744 37.5642C73.2846 37.7958 73.3329 38.052 73.3146 38.3079C73.3254 38.6399 73.2281 38.9665 73.0374 39.2385C72.7798 39.5274 72.4299 39.7181 72.0474 39.778L72.0672 39.783ZM68.3943 39.4761H70.6565C71.1469 39.5046 71.6367 39.4111 72.0821 39.2038C72.2304 39.1354 72.356 39.0258 72.4438 38.888C72.5315 38.7502 72.5778 38.5901 72.5771 38.4267C72.5779 38.2567 72.5442 38.0883 72.4781 37.9317C72.41 37.7826 72.2977 37.6582 72.1563 37.5753C71.9742 37.4699 71.7747 37.3978 71.5673 37.3624C71.2679 37.3129 70.9648 37.2897 70.6614 37.2931H68.3993L68.3943 39.4761ZM70.6565 42.3619C71.0025 42.3678 71.3484 42.3463 71.691 42.2976C71.9152 42.2688 72.1329 42.2018 72.3345 42.0996C72.4776 42.0313 72.5929 41.9159 72.6612 41.7729C72.7869 41.4549 72.7869 41.1009 72.6612 40.7829C72.5845 40.63 72.4615 40.5053 72.3098 40.4265C72.1105 40.3158 71.8922 40.2436 71.6663 40.2136C71.3389 40.1615 71.0077 40.1383 70.6763 40.1443H68.4142V42.3471L70.6565 42.3619Z" fill="#FF8159"/>
<path d="M79.5565 40.5556V43.0653H78.809V40.5556L76.334 36.5659H77.1606L79.2001 39.927L81.1801 36.5659H82.0067L79.5565 40.5556Z" fill="#FF8159"/>
<path d="M96.4508 36.5655V43.0649H95.7083V38.0356L93.4115 41.9957H93.3669L91.0701 38.0356V43.0649H90.3276V36.5655H91.08L93.357 40.5899H93.3818L95.6984 36.5605L96.4508 36.5655Z" fill="#FF8159"/>
<path d="M105.177 43.0649L104.534 41.5304H101.069L100.425 43.0649H99.5938L102.395 36.5605H103.187L105.964 43.0649H105.177ZM101.306 40.8869H104.276L102.791 37.3723H102.762L101.306 40.8869Z" fill="#FF8159"/>
<path d="M114.419 38.6697C114.442 39.1335 114.314 39.5921 114.053 39.9765C113.787 40.3151 113.416 40.5555 112.999 40.6596L114.439 43.0653H113.627L112.281 40.7685H109.806V43.0653H109.063V36.5659H111.974C112.626 36.5224 113.272 36.7216 113.786 37.1253C114 37.3193 114.168 37.5587 114.277 37.8259C114.387 38.0931 114.435 38.3813 114.419 38.6697ZM111.994 40.0953C112.436 40.1243 112.875 40.004 113.241 39.7537C113.393 39.6225 113.512 39.4572 113.587 39.2714C113.663 39.0856 113.694 38.8845 113.677 38.6845C113.688 38.4912 113.656 38.2979 113.582 38.1188C113.508 37.9397 113.395 37.7795 113.251 37.65C112.887 37.3857 112.442 37.2578 111.994 37.2886H109.826V40.0953H111.994Z" fill="#FF8159"/>
<path d="M123.582 36.5659V43.0653H122.938L118.632 37.848V43.0653H117.889V36.5659H118.552L122.849 41.8971V36.5659H123.582Z" fill="#FF8159"/>
<path d="M128.091 36.5659V43.0653H127.349V36.5659H128.091Z" fill="#FF8159"/>
<path d="M142.758 36.5659V43.0653H142.115L137.808 37.848V43.0653H137.065V36.5659H137.724L142.025 41.8971V36.5659H142.758Z" fill="#FF8159"/>
<path d="M147.268 36.5659V43.0653H146.521V36.5659H147.268Z" fill="#FF8159"/>
<path d="M157.123 42.0749C156.803 42.4338 156.405 42.7148 155.96 42.8966C154.967 43.27 153.874 43.2858 152.871 42.9411C152.448 42.7912 152.062 42.5534 151.737 42.2432C151.418 41.9417 151.169 41.5731 151.01 41.1641C150.835 40.723 150.748 40.2523 150.752 39.7781C150.747 39.3106 150.832 38.8465 151.005 38.4119C151.165 38.0101 151.41 37.6472 151.722 37.3476C152.046 37.0407 152.431 36.8047 152.851 36.6546C153.328 36.4873 153.831 36.4051 154.336 36.4121C154.896 36.4 155.452 36.5045 155.97 36.719C156.429 36.9132 156.838 37.2114 157.163 37.5902L156.539 38.0208C156.273 37.7309 155.947 37.5027 155.584 37.3526C155.188 37.1904 154.764 37.1096 154.336 37.115C153.952 37.1121 153.57 37.1758 153.207 37.3031C152.874 37.4185 152.568 37.6004 152.307 37.8377C152.051 38.0736 151.847 38.3602 151.708 38.6792C151.557 39.0255 151.482 39.4004 151.49 39.7781C151.483 40.1632 151.556 40.5456 151.703 40.9017C151.837 41.2239 152.038 41.514 152.292 41.7531C152.554 41.9902 152.86 42.1736 153.193 42.2927C153.56 42.4199 153.947 42.4836 154.336 42.4808C154.752 42.4869 155.165 42.4147 155.554 42.2679C155.91 42.1317 156.231 41.9148 156.489 41.6343L157.123 42.0749Z" fill="#FF8159"/>
<path d="M163.904 36.4273C164.41 36.4208 164.913 36.5046 165.389 36.6748C165.812 36.8259 166.198 37.0636 166.523 37.3728C166.838 37.6768 167.084 38.0447 167.246 38.4519C167.423 38.8938 167.51 39.3667 167.503 39.8428C167.507 40.2973 167.421 40.748 167.25 41.1694C167.09 41.5718 166.847 41.936 166.538 42.2386C166.214 42.5534 165.828 42.7963 165.404 42.9514C164.93 43.1293 164.426 43.2166 163.919 43.2088C163.413 43.2164 162.91 43.1325 162.434 42.9613C162.014 42.8089 161.628 42.5732 161.301 42.2683C160.984 41.9694 160.734 41.6066 160.568 41.204C160.396 40.7712 160.31 40.3087 160.316 39.8428C160.311 39.3743 160.395 38.9091 160.563 38.4717C160.723 38.0651 160.968 37.6973 161.281 37.3926C161.605 37.0821 161.989 36.8413 162.409 36.6847C162.887 36.5063 163.394 36.419 163.904 36.4273ZM163.904 42.5009C164.295 42.5057 164.683 42.4438 165.053 42.3178C165.387 42.1999 165.695 42.0165 165.959 41.7782C166.215 41.5451 166.416 41.2576 166.548 40.9367C166.694 40.5909 166.766 40.2183 166.76 39.8428C166.764 39.4563 166.692 39.0728 166.548 38.7142C166.412 38.3905 166.207 38.1001 165.949 37.8628C165.685 37.6261 165.377 37.4444 165.043 37.3282C164.678 37.1969 164.292 37.1315 163.904 37.1351C163.498 37.1283 163.094 37.1937 162.711 37.3282C162.379 37.4432 162.074 37.6252 161.816 37.8628C161.569 38.1031 161.376 38.3934 161.251 38.7142C161.118 39.0754 161.053 39.4579 161.058 39.8428C161.053 40.2151 161.125 40.5843 161.271 40.9268C161.41 41.2434 161.612 41.5281 161.865 41.7634C162.131 41.9994 162.438 42.184 162.771 42.3079C163.134 42.4397 163.518 42.5051 163.904 42.5009Z" fill="#FF8159"/>
<path d="M175.453 42.3624V43.0653H170.998V36.5659H171.74V42.3624H175.453Z" fill="#FF8159"/>
<path d="M179.408 37.2738V39.4716H183.303V40.1646H179.408V42.3624H183.768V43.0653H178.665V36.5659H183.768V37.2738H179.408Z" fill="#FF8159"/>
<path d="M187.293 15.2507H186.615V17.0377H186.259V15.2507H185.561V14.9487H187.313L187.293 15.2507Z" fill="white"/>
<path d="M189.585 14.9487V17.0377H189.228V15.6615L188.595 16.7456L187.981 15.6615V17.0377H187.604V14.9487H188.001L188.595 16.0922L189.204 14.9487H189.585Z" fill="white"/>
</svg>
